PathFileType	3	(X/Y/Z)	walking_2__fused_aligned.trc
DataRate	CameraRate	NumFrames	NumMarkers	Units	OrigDataRate	OrigDataStartFrame	OrigNumFrames
100.0	100.0	7	19	mm	100.0	1016	6270
Frame#	Time	pelvis			neck			head			hip_left			hip_right			knee_left			knee_right			ankle_left			ankle_right			heel_left			heel_right			toe_left			toe_right			shoulder_left			shoulder_right			elbow_left			elbow_right			wrist_left			wrist_right			
		X1	Y1	Z1	X2	Y2	Z2	X3	Y3	Z3	X4	Y4	Z4	X5	Y5	Z5	X6	Y6	Z6	X7	Y7	Z7	X8	Y8	Z8	X9	Y9	Z9	X10	Y10	Z10	X11	Y11	Z11	X12	Y12	Z12	X13	Y13	Z13	X14	Y14	Z14	X15	Y15	Z15	X16	Y16	Z16	X17	Y17	Z17	X18	Y18	Z18	X19	Y19	Z19	
1016	10.15000	11.274540	936.645611	186.335176	-12.956741	1488.640193	263.555374	-14.631445	1575.848632	411.968800	87.243239	940.534303	189.092928	-64.694162	932.756911	183.577423	77.230121	517.491590	308.197321	-119.639824	515.246870	269.438969	68.661686	102.955123	298.553643	-136.872534	226.075578	-25.209606	66.427749	50.679605	269.815325	-133.645932	211.381688	-80.373631	55.695585	65.310170	489.560010	-150.367698	73.461493	69.876014	164.426716	1446.563683	218.259271	-186.587885	1425.884260	229.566565	235.497876	1165.272574	157.814259	-239.014986	1136.719003	235.109896	282.840030	905.692687	188.555285	-249.397662	916.583898	377.666040
1017	10.16000	12.989946	936.927042	185.661597	-11.710267	1488.753826	263.465512	-14.251279	1575.871209	411.727911	89.055312	940.966111	188.567466	-63.075422	932.887962	182.755729	78.458907	516.938036	302.638600	-118.196922	516.892645	275.286147	69.133273	102.452829	287.999863	-135.774544	227.154437	-15.446900	66.785038	50.403098	258.752364	-132.528367	212.274521	-70.228629	56.526328	63.403127	478.752898	-149.615387	75.426579	79.863092	165.936786	1446.683102	219.910822	-184.941657	1426.206754	227.752491	237.999976	1165.494085	161.523247	-236.915300	1137.054299	230.509855	284.120228	906.591147	195.809116	-249.164981	915.357585	369.210384
1018	10.17000	14.705353	937.208473	184.988018	-10.463793	1488.867458	263.375650	-13.871113	1575.893786	411.487022	90.867385	941.397919	188.042005	-61.456682	933.019013	181.934034	79.687694	516.384482	297.079879	-116.754019	518.538419	281.133325	69.604860	101.950535	277.446084	-134.676554	228.233296	-5.684195	67.142327	50.126591	247.689402	-131.410802	213.167354	-60.083628	57.357072	61.496084	467.945787	-148.863075	77.391665	89.850170	167.446857	1446.802521	221.562373	-183.295429	1426.529249	225.938418	240.502075	1165.715596	165.232235	-234.815615	1137.389595	225.909813	285.400425	907.489607	203.062947	-248.932299	914.131272	360.754727
1019	10.18000	16.420759	937.489904	184.314439	-9.217319	1488.981091	263.285788	-13.490947	1575.916363	411.246133	92.679459	941.829728	187.516544	-59.837943	933.150063	181.112339	80.916480	515.830928	291.521157	-115.311117	520.184194	286.980503	70.076448	101.448241	266.892305	-133.578564	229.312155	4.078511	67.499616	49.850085	236.626441	-130.293238	214.060188	-49.938626	58.187815	59.589041	457.138675	-148.110763	79.356750	99.837249	168.956928	1446.921941	223.213924	-181.649201	1426.851744	224.124345	243.004174	1165.937106	168.941222	-232.715929	1137.724891	221.309772	286.680622	908.388067	210.316778	-248.699617	912.904959	352.299071
1020	10.19000	18.136165	937.771335	183.640860	-7.970845	1489.094724	263.195926	-13.110781	1575.938940	411.005244	94.491532	942.261536	186.991082	-58.219203	933.281114	180.290644	82.145266	515.277375	285.962436	-113.868214	521.829969	292.827681	70.548035	100.945947	256.338526	-132.480574	230.391014	13.841216	67.856906	49.573578	225.563480	-129.175673	214.953021	-39.793624	59.018559	57.681998	446.331564	-147.358451	81.321836	109.824327	170.466999	1447.041360	224.865475	-180.002973	1427.174238	222.310271	245.506273	1166.158617	172.650210	-230.616243	1138.060187	216.709730	287.960819	909.286527	217.570608	-248.466935	911.678646	343.843414
1021	10.20000	19.851571	938.052766	182.967281	-6.724371	1489.208357	263.106064	-12.730615	1575.961518	410.764355	96.303605	942.693344	186.465621	-56.600464	933.412165	179.468950	83.374052	514.723821	280.403715	-112.425311	523.475743	298.674859	71.019622	100.443653	245.784747	-131.382584	231.469873	23.603922	68.214195	49.297071	214.500518	-128.058109	215.845854	-29.648622	59.849302	55.774955	435.524452	-146.606139	83.286922	119.811405	171.977070	1447.160779	226.517026	-178.356746	1427.496733	220.496198	248.008372	1166.380128	176.359198	-228.516558	1138.395483	212.109689	289.241016	910.184987	224.824439	-248.234253	910.452333	335.387758
1022	10.21000	21.566977	938.334197	182.293702	-5.477897	1489.321989	263.016202	-12.350449	1575.984095	410.523466	98.115678	943.125152	185.940159	-54.981724	933.543215	178.647255	84.602839	514.170267	274.844994	-110.982409	525.121518	304.522038	71.491209	99.941358	235.230967	-130.284594	232.548732	33.366627	68.571484	49.020565	203.437557	-126.940544	216.738687	-19.503620	60.680046	53.867913	424.717341	-145.853827	85.252008	129.798484	173.487140	1447.280198	228.168577	-176.710518	1427.819227	218.682125	250.510471	1166.601639	180.068185	-226.416872	1138.730780	207.509648	290.521213	911.083447	232.078270	-248.001571	909.226020	326.932101
